<svg width="18" height="18" viewBox="0 0 18 18" fill="none" xmlns="http://www.w3.org/2000/svg">
<g clip-path="url(#clip0_2251_2335)">
<path d="M18 7.5V18H0V7.5H18ZM18 6V3.75C18 3.15326 17.7629 2.58097 17.341 2.15901C16.919 1.73705 16.3467 1.5 15.75 1.5H13.5V0H12V1.5H6V0H4.5V1.5H2.25C1.65326 1.5 1.08097 1.73705 0.65901 2.15901C0.237053 2.58097 0 3.15326 0 3.75L0 6H18ZM13.5 10.5H12V12H13.5V10.5ZM9.75 10.5H8.25V12H9.75V10.5ZM6 10.5H4.5V12H6V10.5ZM13.5 13.5H12V15H13.5V13.5ZM9.75 13.5H8.25V15H9.75V13.5ZM6 13.5H4.5V15H6V13.5Z" fill="#333333"/>
</g>
<defs>
<clipPath id="clip0_2251_2335">
<rect width="18" height="18" fill="white"/>
</clipPath>
</defs>
</svg>
