<svg width="18" height="18" viewBox="0 0 18 18" fill="none" xmlns="http://www.w3.org/2000/svg">
<g clip-path="url(#clip0_2252_2347)">
<path d="M9 0C6.61305 0 4.32387 0.948211 2.63604 2.63604C0.948211 4.32387 0 6.61305 0 9C0 11.3869 0.948211 13.6761 2.63604 15.364C4.32387 17.0518 6.61305 18 9 18H18V9C17.9974 6.61384 17.0484 4.32616 15.3611 2.63889C13.6738 0.951621 11.3862 0.00258081 9 0V0ZM8.93175 12.3143C8.65061 12.5943 8.26995 12.7516 7.87313 12.7516C7.4763 12.7516 7.09564 12.5943 6.8145 12.3143L3.975 9.53625L5.025 8.46375L7.86975 11.244L12.9742 6.219L14.0242 7.287L8.93175 12.3143Z" fill="#333333"/>
</g>
<defs>
<clipPath id="clip0_2252_2347">
<rect width="18" height="18" fill="white"/>
</clipPath>
</defs>
</svg>
