<svg width="32" height="18" viewBox="0 0 32 18" fill="none" xmlns="http://www.w3.org/2000/svg">
<g clip-path="url(#clip0_2255_2360)">
<path d="M27.1252 0.6875C26.2807 0.700636 25.4546 0.93639 24.7303 1.37095C24.006 1.80552 23.4092 2.4235 23.0002 3.1625C22.5912 2.4235 21.9944 1.80552 21.2701 1.37095C20.5459 0.93639 19.7198 0.700636 18.8752 0.6875C17.5289 0.745993 16.2605 1.33494 15.347 2.32567C14.4336 3.31641 13.9494 4.62839 14.0002 5.975C14.0002 11.0563 22.2172 16.925 22.5667 17.174L23.0002 17.4808L23.4337 17.174C23.7832 16.9265 32.0002 11.0563 32.0002 5.975C32.051 4.62839 31.5668 3.31641 30.6534 2.32567C29.7399 1.33494 28.4715 0.745993 27.1252 0.6875V0.6875Z" fill="#E1DDDD"/>
</g>
<g clip-path="url(#clip1_2255_2360)">
<path d="M13.1252 0.6875C12.2807 0.700636 11.4546 0.93639 10.7303 1.37095C10.006 1.80552 9.40923 2.4235 9.00021 3.1625C8.59119 2.4235 7.99441 1.80552 7.27014 1.37095C6.54587 0.93639 5.71975 0.700636 4.87521 0.6875C3.52892 0.745993 2.26049 1.33494 1.34705 2.32567C0.433607 3.31641 -0.0506 4.62839 0.000212859 5.975C0.000212859 11.0563 8.21721 16.925 8.56671 17.174L9.00021 17.4808L9.43371 17.174C9.78321 16.9265 18.0002 11.0563 18.0002 5.975C18.051 4.62839 17.5668 3.31641 16.6534 2.32567C15.7399 1.33494 14.4715 0.745993 13.1252 0.6875V0.6875Z" fill="#F5AB7F"/>
</g>
<defs>
<clipPath id="clip0_2255_2360">
<rect width="18" height="18" fill="white" transform="translate(14)"/>
</clipPath>
<clipPath id="clip1_2255_2360">
<rect width="18" height="18" fill="white"/>
</clipPath>
</defs>
</svg>
