<svg width="18" height="18" viewBox="0 0 18 18" fill="none" xmlns="http://www.w3.org/2000/svg">
<path d="M9.00012 0C7.01167 0.0021837 5.10528 0.793061 3.69923 2.19911C2.29318 3.60516 1.50231 5.51155 1.50012 7.5C1.50012 11.4615 7.80012 16.8998 8.51562 17.5073L9.00012 17.9167L9.48462 17.5073C10.2001 16.8998 16.5001 11.4615 16.5001 7.5C16.4979 5.51155 15.7071 3.60516 14.301 2.19911C12.895 0.793061 10.9886 0.0021837 9.00012 0V0ZM9.00012 11.25C8.25844 11.25 7.53342 11.0301 6.91673 10.618C6.30005 10.206 5.8194 9.62029 5.53557 8.93506C5.25174 8.24984 5.17748 7.49584 5.32218 6.76841C5.46687 6.04098 5.82402 5.3728 6.34847 4.84835C6.87292 4.3239 7.5411 3.96675 8.26853 3.82206C8.99596 3.67736 9.74996 3.75162 10.4352 4.03545C11.1204 4.31928 11.7061 4.79993 12.1181 5.41661C12.5302 6.0333 12.7501 6.75832 12.7501 7.5C12.7489 8.4942 12.3535 9.44733 11.6505 10.1503C10.9475 10.8533 9.99432 11.2488 9.00012 11.25V11.25Z" fill="#333333"/>
<path d="M9 9.75C10.2426 9.75 11.25 8.74264 11.25 7.5C11.25 6.25736 10.2426 5.25 9 5.25C7.75736 5.25 6.75 6.25736 6.75 7.5C6.75 8.74264 7.75736 9.75 9 9.75Z" fill="#333333"/>
</svg>
